<?xml version="1.0" encoding="utf-8"?>
<!-- Generator: Adobe Illustrator 22.0.0, SVG Export Plug-In . SVG Version: 6.00 Build 0)  -->
<svg version="1.1" id="Layer_1" xmlns="http://www.w3.org/2000/svg" xmlns:xlink="http://www.w3.org/1999/xlink" x="0px" y="0px"
	 viewBox="0 0 1798 444" style="enable-background:new 0 0 1798 444;" xml:space="preserve">
<style type="text/css">
	.st0{display:none;}
	.st1{display:inline;fill:#514A93;}
	.st2{display:inline;fill:#332C5A;}
	.st3{fill:#3A3A3A;}
	.st4{fill:#222222;}
</style>
<g id="Layer_1_1_" class="st0">
	<path class="st1" d="M225,153c136-1,153.8,161.8,246.8,158.8c94.5-3,131.8-169.2,282-165c132-5,192,147,285,144
		c159.1-5.1,184-131,315-141c100,2,169.4,169.8,243.1,163.2c134-12,294.5-155.1,305.9-133.2S1947,449,1947,449l-2294-2
		c0,0-38.5-229.3,45-283c42.6-27.4,210.5,162.1,263.7,159.8C55.7,319.8,104,162,225,153z"/>
	<path class="st2" d="M469,153c139-4,175.3,104.8,269.8,104.8c96,0,123.2-110.8,306.2-114.8c130,2,195,123,288,120
		c159.1-5.1,185.9-106.2,323.9-113.2c154,3,203.4,138.8,277.1,132.2c134-12,111.6-142.9,123-121c11.4,21.9,24,284,24,284l-2184,2
		c0,0-38.5-229.3,45-283c42.6-27.4,199.8,92.3,253,90C289,250,322,161,469,153z"/>
</g>
<g id="Layer_2">
	<path class="st3" d="M223.9,153c136-1,153.8,161.8,246.8,158.8c94.5-3,131.8-169.2,282-165c132-5,192,147,285,144
		c159.1-5.1,184-131,315-141c100,2,169.4,169.8,243.1,163.2c134-12,294.5-155.1,305.9-133.2s44.1,269.2,44.1,269.2l-2294-2
		c0,0-38.5-229.3,45-283c42.6-27.4,210.5,162.1,263.7,159.8C54.7,319.8,102.9,162,223.9,153z"/>
	<path class="st4" d="M467.9,153c139-4,175.3,104.8,269.8,104.8c96,0,123.2-110.8,306.2-114.8c130,2,195,123,288,120
		c159.1-5.1,185.9-106.2,323.9-113.2c154,3,203.4,138.8,277.1,132.2c134-12,111.6-142.9,123-121s24,284,24,284l-2184,2
		c0,0-38.5-229.3,45-283c42.6-27.4,199.8,92.3,253,90C287.9,250,320.9,161,467.9,153z"/>
</g>
</svg>
